<?xml version="1.0" encoding="utf-8"?>
<!-- Generator: Adobe Illustrator 21.0.0, SVG Export Plug-In . SVG Version: 6.00 Build 0)  -->
<svg version="1.1" id="Layer_1" xmlns="http://www.w3.org/2000/svg" xmlns:xlink="http://www.w3.org/1999/xlink" x="0px" y="0px"
	 viewBox="0 0 576 720" style="enable-background:new 0 0 576 720;" xml:space="preserve">
<style type="text/css">
	.st0{fill:#2B3848;}
	.st1{fill:#606161;}
	.st2{fill:#F36E2B;stroke:#F36B26;stroke-width:1.5;stroke-miterlimit:10;}
	.st3{fill:#F36B26;}
</style>
<g>
	<path class="st0" d="M67.8,371.5c3,0,5.6,0.2,7.6,0.7c2,0.5,3.9,1.2,5.4,2.2s2.9,2.2,3.8,3.7c1,1.4,1.7,3.1,2.2,4.9
		c0.5,1.9,0.7,4,0.7,6.3c0,2.8-0.3,5.4-1,7.7c-0.7,2.3-1.7,4.2-3,5.8c-1.2,1.4-2.6,2.6-4.4,3.6s-3.7,1.6-5.9,2
		c-1.9,0.3-4.4,0.5-7.3,0.5H53.6V407c0.7-0.2,1.2-0.4,1.6-0.6c0.4-0.2,0.7-0.5,0.9-0.9s0.3-0.8,0.4-1.4s0.1-1.3,0.1-2.2v-23.6
		c0-0.9,0-1.6-0.1-2.2c0-0.6-0.2-1.1-0.4-1.4s-0.5-0.7-0.9-0.9c-0.4-0.2-0.9-0.4-1.6-0.6v-1.8H67.8z M65,405.5
		c0.3,0.1,1.2,0.1,2.5,0.1c2,0,3.7-0.3,5.1-0.9c1-0.4,1.9-1,2.6-1.8c1.2-1.3,2.1-2.9,2.7-4.9c0.7-2.2,1-4.9,1-8
		c0-3.5-0.5-6.3-1.4-8.6s-2.2-4-3.9-5.1c-1.7-1.1-3.7-1.6-6.1-1.6c-1.1,0-1.9,0-2.4,0.1V405.5z"/>
	<path class="st0" d="M103,385.6l0.4,0.1c1.3-1.6,2.7-2.7,4.1-3.4c1.4-0.7,2.9-1,4.6-1c1.1,0,2.3,0.1,3.5,0.4v7.5h-4.9
		c-0.3-1.1-0.7-1.9-1.2-2.4c-0.5-0.6-1.2-0.8-2-0.8c-0.4,0-0.8,0.1-1.3,0.4c-0.5,0.2-0.9,0.6-1.3,1s-0.7,0.9-0.9,1.4
		c-0.2,0.5-0.3,0.9-0.3,1.4s-0.1,1.2-0.1,2.1v8.7c0,1.7,0.1,2.9,0.2,3.6c0.1,0.7,0.4,1.2,0.8,1.6s1,0.7,1.9,0.8v1.8H92.8V407
		c0.9-0.2,1.5-0.5,1.8-0.9c0.3-0.4,0.6-0.9,0.7-1.6c0.1-0.7,0.2-1.9,0.2-3.6v-11.2c0-1.3,0-2.3-0.1-3c0-0.6-0.2-1.2-0.3-1.6
		c-0.2-0.4-0.4-0.7-0.8-1s-1-0.5-1.8-0.6v-1.9l7.5-0.2h3.4L103,385.6z"/>
	<path class="st0" d="M121,400.6v8.3h-7.4v-8.3H121z"/>
	<path class="st0" d="M180.5,380.9c0.3-0.8,0.5-1.7,0.7-2.5c0.2-0.8,0.3-1.6,0.3-2.2c0-0.9-0.2-1.6-0.7-2.1s-1.2-0.7-2.1-0.8v-1.8
		h11.4v1.8c-0.7,0.1-1.2,0.4-1.7,0.8c-0.5,0.4-0.9,0.9-1.2,1.6c-0.4,0.7-0.8,1.8-1.4,3.4l-10.3,30H169l-6.2-25.7l-7.3,25.7h-6.8
		l-8.2-30.6c-0.4-1.5-0.8-2.5-1.1-3.1c-0.3-0.6-0.7-1-1-1.3s-0.9-0.5-1.4-0.7v-1.8h14.7v1.8c-0.9,0.1-1.6,0.4-2.1,0.8
		c-0.5,0.4-0.7,1-0.7,1.8c0,1,0.3,2.5,0.8,4.5l4.7,19l7.8-27.9h6.2l6.4,27.9L180.5,380.9z"/>
	<path class="st0" d="M192.3,407c0.9-0.2,1.5-0.5,1.8-0.9c0.3-0.4,0.6-0.9,0.7-1.6c0.1-0.7,0.2-1.9,0.2-3.6v-12.7
		c0-0.9,0-1.6-0.1-2.2s-0.2-1-0.5-1.3c-0.2-0.3-0.5-0.6-0.9-0.8c-0.4-0.2-0.9-0.3-1.5-0.5v-1.9l7.5-0.2h3.4v19.4c0,1,0,1.8,0,2.4
		s0.1,1,0.1,1.3s0.1,0.6,0.2,0.8c0.1,0.2,0.2,0.5,0.4,0.7s0.4,0.4,0.7,0.5c0.3,0.2,0.7,0.3,1.2,0.4v1.8h-13.3V407z M202.7,370.8v6.7
		h-7.5v-6.7H202.7z"/>
	<path class="st0" d="M220.2,400.9c0,1.7,0.1,2.9,0.2,3.6s0.3,1.2,0.7,1.6c0.3,0.4,1,0.7,1.9,0.9v1.8h-13.4V407
		c0.5-0.1,1-0.3,1.3-0.5c0.3-0.2,0.6-0.4,0.7-0.6c0.2-0.2,0.3-0.5,0.5-0.9c0.1-0.4,0.2-0.8,0.2-1.5c0-0.6,0.1-1.5,0.1-2.7v-21.3
		c0-1.6,0-2.7,0-3.5s-0.1-1.4-0.2-1.9s-0.2-0.9-0.4-1.2s-0.5-0.5-0.8-0.7c-0.3-0.2-0.9-0.3-1.7-0.5v-1.8l7.6-0.4h3.4V400.9z"/>
	<path class="st0" d="M237.4,400.9c0,1.7,0.1,2.9,0.2,3.6s0.3,1.2,0.7,1.6c0.3,0.4,1,0.7,1.9,0.9v1.8h-13.4V407
		c0.5-0.1,1-0.3,1.3-0.5c0.3-0.2,0.6-0.4,0.7-0.6c0.2-0.2,0.3-0.5,0.5-0.9c0.1-0.4,0.2-0.8,0.2-1.5c0-0.6,0.1-1.5,0.1-2.7v-21.3
		c0-1.6,0-2.7,0-3.5s-0.1-1.4-0.2-1.9s-0.2-0.9-0.4-1.2s-0.5-0.5-0.8-0.7c-0.3-0.2-0.9-0.3-1.7-0.5v-1.8l7.6-0.4h3.4V400.9z"/>
	<path class="st0" d="M244.4,407c0.9-0.2,1.5-0.5,1.8-0.9c0.3-0.4,0.6-0.9,0.7-1.6c0.1-0.7,0.2-1.9,0.2-3.6v-12.7
		c0-0.9,0-1.6-0.1-2.2s-0.2-1-0.5-1.3c-0.2-0.3-0.5-0.6-0.9-0.8c-0.4-0.2-0.9-0.3-1.5-0.5v-1.9l7.5-0.2h3.4v19.4c0,1,0,1.8,0,2.4
		s0.1,1,0.1,1.3s0.1,0.6,0.2,0.8c0.1,0.2,0.2,0.5,0.4,0.7s0.4,0.4,0.7,0.5c0.3,0.2,0.7,0.3,1.2,0.4v1.8h-13.3V407z M254.8,370.8v6.7
		h-7.5v-6.7H254.8z"/>
	<path class="st0" d="M278.2,405.3l-0.4-0.1c-1.5,1.5-2.9,2.5-4.4,3.2c-1.4,0.7-2.9,1-4.5,1c-1.6,0-2.9-0.3-4.1-0.9
		c-1.2-0.6-2-1.4-2.6-2.4c-0.6-1-0.9-2.2-0.9-3.5c0-2.7,1.3-4.8,4-6.3c2.6-1.5,6.6-2.5,12-2.9v-2.6c0-1.7-0.2-3-0.6-3.9
		s-0.9-1.6-1.5-1.9s-1.3-0.6-2.2-0.6c-0.8,0-1.6,0.1-2.2,0.4c-0.6,0.3-1.2,0.8-1.7,1.7s-0.9,1.9-1.1,3.4H263v-5
		c1.7-0.7,3.1-1.3,4.2-1.7c1.1-0.4,2.2-0.7,3.3-1c1.1-0.3,2.1-0.5,2.9-0.6c0.9-0.1,1.7-0.2,2.6-0.2c2.2,0,4,0.3,5.3,0.9
		c1.3,0.6,2.3,1.5,3,2.8s1,3.1,1,5.4v10.7c0,1.2,0,2.1,0.1,2.8s0.1,1.1,0.3,1.5c0.1,0.3,0.3,0.6,0.5,0.8c0.2,0.2,0.4,0.3,0.7,0.5
		c0.3,0.1,0.8,0.3,1.5,0.5v1.8H278L278.2,405.3z M277.3,395.9c-2.8,0.1-4.9,0.6-6.3,1.6c-1.4,1-2,2.4-2,4.3c0,1.1,0.3,2,0.9,2.6
		c0.6,0.6,1.5,0.9,2.6,0.9c0.8,0,1.6-0.2,2.4-0.7c0.7-0.4,1.3-1,1.8-1.8s0.7-1.5,0.7-2.4V395.9z"/>
	<path class="st0" d="M302.2,385.4l0.3,0.1c1.7-1.5,3.2-2.6,4.5-3.3c1.3-0.6,2.7-1,4.1-1c1.3,0,2.5,0.2,3.4,0.5
		c0.9,0.3,1.6,0.9,2.3,1.5c0.6,0.7,1.1,1.5,1.5,2.6c1.8-1.7,3.4-2.9,4.8-3.6c1.4-0.7,2.8-1,4.3-1c1.5,0,2.7,0.2,3.6,0.6
		s1.7,1,2.4,1.8c0.6,0.8,1.1,1.8,1.4,3c0.3,1.2,0.4,2.6,0.4,4.3v10c0,0.8,0,1.6,0,2.3s0.1,1.3,0.2,1.7s0.3,0.8,0.5,1
		s0.5,0.5,0.8,0.7c0.3,0.2,0.8,0.3,1.3,0.5v1.8h-13.2V407c0.8-0.2,1.4-0.5,1.7-0.9c0.3-0.4,0.5-0.9,0.6-1.6c0.1-0.7,0.2-1.9,0.2-3.6
		v-7.3c0-1.6-0.1-3-0.2-4s-0.3-1.8-0.6-2.4c-0.3-0.6-0.7-1-1.1-1.3c-0.4-0.3-1-0.4-1.7-0.4c-0.5,0-0.9,0.1-1.3,0.2
		c-0.4,0.1-0.8,0.4-1.2,0.7s-0.8,0.6-1.1,0.9c-0.3,0.3-0.5,0.7-0.7,1c-0.2,0.4-0.3,0.8-0.4,1.3c-0.1,0.5-0.1,1.2-0.1,2.3v8.9
		c0,1.2,0,2.2,0.1,2.8c0,0.7,0.1,1.2,0.3,1.6c0.1,0.4,0.4,0.7,0.7,1c0.3,0.3,0.8,0.5,1.5,0.7v1.8h-13V407c0.8-0.2,1.4-0.5,1.7-0.9
		c0.3-0.4,0.5-0.9,0.6-1.6s0.2-1.9,0.2-3.6v-7.3c0-1.2,0-2.2-0.1-3c0-0.8-0.1-1.5-0.2-2s-0.3-1-0.5-1.3s-0.4-0.7-0.7-0.9
		s-0.5-0.4-0.9-0.5c-0.3-0.1-0.8-0.2-1.3-0.2c-0.7,0-1.4,0.2-2.1,0.6s-1.4,1-1.9,1.8c-0.5,0.7-0.8,1.5-0.8,2.4v10.6
		c0,1.7,0,2.9,0.2,3.6c0.1,0.7,0.3,1.2,0.6,1.6s0.9,0.7,1.7,0.9v1.8H292V407c0.9-0.2,1.5-0.5,1.8-0.9c0.3-0.4,0.6-0.9,0.7-1.6
		c0.1-0.7,0.2-1.9,0.2-3.6v-11.2c0-1.3,0-2.3-0.1-3c0-0.6-0.2-1.2-0.3-1.6c-0.2-0.4-0.4-0.7-0.8-1s-1-0.5-1.8-0.6v-1.9l7.5-0.2h3.4
		L302.2,385.4z"/>
	<path class="st0" d="M381.6,371.5v8.7h-3.7c-0.6-1.7-1.1-2.9-1.5-3.5c-0.4-0.6-0.9-1.1-1.5-1.4c-0.6-0.4-1.6-0.5-3-0.5h-6v13.1h3.6
		c0.8,0,1.4-0.1,1.9-0.3c0.5-0.2,0.8-0.6,1.1-1.1s0.6-1.3,0.9-2.5h3.1V395h-3.1c-0.3-1.1-0.5-1.9-0.8-2.4c-0.3-0.6-0.7-1-1.1-1.2
		c-0.4-0.2-1.1-0.4-1.9-0.4h-3.6v14.6h5.9c0.6,0,1.2,0,1.6-0.1s0.8-0.2,1.2-0.4c0.3-0.2,0.7-0.5,1-0.8c0.3-0.3,0.6-0.7,0.8-1.1
		s0.5-0.9,0.8-1.6s0.6-1.6,0.9-2.7h3.7l-0.5,10h-26.9V407c0.7-0.2,1.2-0.4,1.6-0.6c0.4-0.2,0.7-0.5,0.9-0.9s0.3-0.8,0.4-1.4
		s0.1-1.3,0.1-2.2v-23.6c0-0.9,0-1.6-0.1-2.2c0-0.6-0.2-1.1-0.4-1.4s-0.5-0.7-0.9-0.9c-0.4-0.2-0.9-0.4-1.6-0.6v-1.8H381.6z"/>
	<path class="st0" d="M394.4,400.6v8.3H387v-8.3H394.4z"/>
	<path class="st0" d="M444.4,402c0,1.4,0.1,2.4,0.2,2.9c0.1,0.5,0.4,1,0.7,1.3c0.4,0.3,1,0.6,2,0.9v1.8H433V407
		c1.1-0.3,1.7-0.5,2.1-0.8c0.3-0.3,0.5-0.7,0.7-1.2c0.1-0.5,0.2-1.5,0.2-3.1v-11h-12.4v11c0,0.6,0,1.2,0.1,1.8c0,0.5,0.1,1,0.2,1.3
		s0.3,0.6,0.5,0.9c0.2,0.2,0.5,0.4,0.9,0.6c0.4,0.2,0.8,0.3,1.3,0.5v1.8h-14.4V407c0.7-0.2,1.2-0.4,1.6-0.6c0.4-0.2,0.7-0.5,0.9-0.9
		s0.3-0.8,0.4-1.4s0.1-1.3,0.1-2.2v-23.6c0-0.9,0-1.6-0.1-2.2c0-0.6-0.2-1.1-0.4-1.4s-0.5-0.7-0.9-0.9c-0.4-0.2-0.9-0.4-1.6-0.6
		v-1.8h14.4v1.8c-1,0.3-1.6,0.6-2,0.9s-0.6,0.8-0.8,1.3c-0.1,0.5-0.2,1.5-0.2,2.9v9.1h12.4v-9.1c0-1.4-0.1-2.3-0.2-2.9
		c-0.1-0.5-0.4-1-0.7-1.3s-1-0.6-2-0.9v-1.8h14.3v1.8c-0.8,0.2-1.4,0.5-1.8,0.7c-0.4,0.2-0.6,0.6-0.8,0.9c-0.2,0.4-0.3,0.8-0.3,1.3
		c0,0.5-0.1,1.2-0.1,2.2V402z"/>
	<path class="st0" d="M468.5,405.3l-0.4-0.1c-1.5,1.5-2.9,2.5-4.4,3.2c-1.4,0.7-2.9,1-4.5,1c-1.6,0-2.9-0.3-4.1-0.9
		c-1.2-0.6-2-1.4-2.6-2.4c-0.6-1-0.9-2.2-0.9-3.5c0-2.7,1.3-4.8,4-6.3c2.6-1.5,6.6-2.5,12-2.9v-2.6c0-1.7-0.2-3-0.6-3.9
		s-0.9-1.6-1.5-1.9s-1.3-0.6-2.2-0.6c-0.8,0-1.6,0.1-2.2,0.4c-0.6,0.3-1.2,0.8-1.7,1.7s-0.9,1.9-1.1,3.4h-5.2v-5
		c1.7-0.7,3.1-1.3,4.2-1.7c1.1-0.4,2.2-0.7,3.3-1c1.1-0.3,2.1-0.5,2.9-0.6c0.9-0.1,1.7-0.2,2.6-0.2c2.2,0,4,0.3,5.3,0.9
		c1.3,0.6,2.3,1.5,3,2.8s1,3.1,1,5.4v10.7c0,1.2,0,2.1,0.1,2.8s0.1,1.1,0.3,1.5c0.1,0.3,0.3,0.6,0.5,0.8c0.2,0.2,0.4,0.3,0.7,0.5
		c0.3,0.1,0.8,0.3,1.5,0.5v1.8h-10.2L468.5,405.3z M467.6,395.9c-2.8,0.1-4.9,0.6-6.3,1.6c-1.4,1-2,2.4-2,4.3c0,1.1,0.3,2,0.9,2.6
		c0.6,0.6,1.5,0.9,2.6,0.9c0.8,0,1.6-0.2,2.4-0.7c0.7-0.4,1.3-1,1.8-1.8s0.7-1.5,0.7-2.4V395.9z"/>
	<path class="st0" d="M494.3,410.1c-1.2,2.6-2.3,4.7-3.3,6.2c-1,1.5-2.2,2.6-3.4,3.4c-1.2,0.7-2.7,1.1-4.5,1.1
		c-1.4,0-2.6-0.2-3.8-0.5V414h3.1c0.2,0.9,0.5,1.4,0.9,1.8c0.4,0.3,0.9,0.5,1.5,0.5c0.7,0,1.3-0.2,1.9-0.6c0.6-0.4,1.2-1.1,1.9-2.1
		c0.7-1,1.6-2.6,2.6-4.7h-1.6l-7.1-20.5c-0.5-1.4-0.9-2.4-1.2-3s-0.6-0.9-1-1.2c-0.4-0.3-0.8-0.5-1.4-0.6v-1.8h13.6v1.8
		c-0.9,0.2-1.5,0.4-1.9,0.7c-0.4,0.3-0.6,0.8-0.6,1.5c0,0.9,0.2,2,0.7,3.4l3.9,11.9l4.3-10.5c0.4-0.9,0.6-1.6,0.8-2.3
		c0.2-0.7,0.3-1.3,0.3-2c0-0.8-0.2-1.4-0.7-1.9s-1.1-0.8-1.9-0.9v-1.8H508v1.8c-0.5,0.2-1,0.4-1.3,0.6c-0.3,0.2-0.6,0.5-0.9,0.9
		c-0.3,0.4-0.6,1-1,1.7c-0.4,0.8-0.9,1.9-1.6,3.4L494.3,410.1z"/>
</g>
<g>
	<path class="st1" d="M60.8,419.1v2.3h-1.1c-0.1-0.6-0.3-1.1-0.6-1.3s-0.6-0.4-1.1-0.4c-0.8,0-1.5,0.4-1.9,1.2
		c-0.4,0.8-0.7,2-0.7,3.6c0,1.5,0.2,2.6,0.6,3.4c0.4,0.8,1,1.1,1.7,1.1c0.4,0,0.7-0.1,1-0.2c0.2-0.1,0.4-0.3,0.6-0.6
		c0.1-0.3,0.3-0.6,0.4-1.1h1.1v2.4c-0.6,0.1-1.1,0.2-1.6,0.3s-1,0.1-1.5,0.1c-1.1,0-2-0.2-2.7-0.6c-0.7-0.4-1.2-1-1.6-1.8
		c-0.3-0.8-0.5-1.8-0.5-3.1c0-1.2,0.2-2.2,0.6-3c0.4-0.9,1-1.5,1.7-2c0.8-0.5,1.7-0.7,2.8-0.7c0.5,0,1,0,1.5,0.1
		C59.8,418.9,60.3,419,60.8,419.1z"/>
	<path class="st1" d="M65.9,430c-0.8,0-1.5-0.1-2-0.4c-0.6-0.3-1-0.7-1.3-1.3c-0.3-0.6-0.5-1.4-0.5-2.3c0-0.7,0.1-1.3,0.3-1.9
		s0.5-1,0.8-1.3s0.8-0.6,1.3-0.8c0.5-0.2,1-0.2,1.6-0.2c1.3,0,2.3,0.3,2.9,1c0.7,0.7,1,1.7,1,3c0,0.9-0.2,1.7-0.5,2.3
		s-0.8,1.1-1.4,1.4C67.5,429.8,66.8,430,65.9,430z M64.5,425.7c0,1.1,0.1,2,0.4,2.6c0.3,0.6,0.6,0.9,1.2,0.9c0.3,0,0.5-0.1,0.7-0.2
		c0.2-0.1,0.3-0.4,0.5-0.6c0.1-0.3,0.2-0.6,0.2-1s0.1-0.8,0.1-1.3c0-1.2-0.1-2-0.4-2.6c-0.3-0.6-0.6-0.9-1.1-0.9
		c-0.4,0-0.7,0.1-0.9,0.3c-0.2,0.2-0.4,0.6-0.5,1S64.5,425,64.5,425.7z"/>
	<path class="st1" d="M72.5,427.7c0.1,0.5,0.3,0.9,0.6,1.1c0.3,0.2,0.7,0.4,1.1,0.4c0.4,0,0.7-0.1,0.9-0.3c0.2-0.2,0.3-0.4,0.3-0.8
		c0-0.2,0-0.4-0.1-0.6c-0.1-0.2-0.2-0.3-0.5-0.4c-0.2-0.1-0.6-0.3-1.1-0.6c-0.3-0.1-0.6-0.3-0.8-0.4c-0.3-0.2-0.5-0.3-0.7-0.5
		s-0.3-0.4-0.5-0.7c-0.1-0.2-0.2-0.5-0.2-0.8c0-0.5,0.1-0.9,0.4-1.3s0.7-0.6,1.2-0.8c0.5-0.2,1.1-0.3,1.8-0.3c0.4,0,0.8,0,1.2,0
		s0.9,0.1,1.5,0.2v1.9h-1.1c-0.1-0.3-0.3-0.6-0.4-0.8c-0.1-0.2-0.3-0.3-0.5-0.4s-0.4-0.1-0.6-0.1c-0.4,0-0.6,0.1-0.8,0.2
		s-0.3,0.4-0.3,0.7c0,0.2,0,0.4,0.1,0.5c0.1,0.1,0.2,0.3,0.4,0.4c0.2,0.1,0.6,0.3,1.1,0.6c0.5,0.2,0.9,0.4,1.2,0.7s0.6,0.5,0.7,0.8
		c0.2,0.3,0.2,0.6,0.2,1c0,0.4-0.1,0.8-0.2,1.1s-0.4,0.6-0.7,0.8s-0.6,0.4-1,0.5c-0.4,0.1-0.9,0.1-1.3,0.1c-0.9,0-1.9-0.1-3-0.4
		v-1.9H72.5z"/>
	<path class="st1" d="M82,422.9L82,422.9c0.6-0.4,1-0.8,1.4-0.9c0.4-0.2,0.8-0.3,1.2-0.3c0.4,0,0.7,0.1,1,0.2
		c0.3,0.1,0.5,0.3,0.7,0.4c0.2,0.2,0.3,0.5,0.4,0.8c0.5-0.5,1-0.9,1.4-1.1c0.4-0.2,0.8-0.3,1.3-0.3c0.4,0,0.8,0.1,1.1,0.2
		c0.3,0.1,0.5,0.3,0.7,0.5s0.3,0.5,0.4,0.9c0.1,0.4,0.1,0.8,0.1,1.3v2.9c0,0.2,0,0.5,0,0.7c0,0.2,0,0.4,0.1,0.5
		c0,0.1,0.1,0.2,0.1,0.3c0.1,0.1,0.1,0.1,0.2,0.2s0.2,0.1,0.4,0.1v0.5h-3.9v-0.5c0.2-0.1,0.4-0.1,0.5-0.3c0.1-0.1,0.2-0.3,0.2-0.5
		c0-0.2,0.1-0.6,0.1-1.1v-2.2c0-0.5,0-0.9,0-1.2s-0.1-0.5-0.2-0.7s-0.2-0.3-0.3-0.4c-0.1-0.1-0.3-0.1-0.5-0.1c-0.1,0-0.3,0-0.4,0.1
		c-0.1,0-0.2,0.1-0.4,0.2c-0.1,0.1-0.2,0.2-0.3,0.3c-0.1,0.1-0.2,0.2-0.2,0.3c-0.1,0.1-0.1,0.2-0.1,0.4c0,0.1,0,0.4,0,0.7v2.6
		c0,0.4,0,0.6,0,0.8c0,0.2,0,0.3,0.1,0.5c0,0.1,0.1,0.2,0.2,0.3c0.1,0.1,0.2,0.1,0.4,0.2v0.5h-3.8v-0.5c0.2-0.1,0.4-0.1,0.5-0.3
		c0.1-0.1,0.2-0.3,0.2-0.5s0-0.6,0-1.1v-2.2c0-0.4,0-0.7,0-0.9c0-0.2,0-0.4-0.1-0.6s-0.1-0.3-0.1-0.4c-0.1-0.1-0.1-0.2-0.2-0.3
		c-0.1-0.1-0.2-0.1-0.3-0.2c-0.1,0-0.2-0.1-0.4-0.1c-0.2,0-0.4,0.1-0.6,0.2c-0.2,0.1-0.4,0.3-0.5,0.5c-0.1,0.2-0.2,0.5-0.2,0.7v3.1
		c0,0.5,0,0.9,0,1.1c0,0.2,0.1,0.4,0.2,0.5s0.3,0.2,0.5,0.3v0.5H79v-0.5c0.3-0.1,0.4-0.2,0.5-0.3c0.1-0.1,0.2-0.3,0.2-0.5
		c0-0.2,0.1-0.5,0.1-1.1v-3.3c0-0.4,0-0.7,0-0.9c0-0.2,0-0.3-0.1-0.5c-0.1-0.1-0.1-0.2-0.2-0.3c-0.1-0.1-0.3-0.1-0.5-0.2v-0.5
		l2.2-0.1h1L82,422.9z"/>
	<path class="st1" d="M101,428.4c-0.5,0.6-1.1,1-1.6,1.2c-0.5,0.2-1.2,0.4-1.9,0.4c-1.3,0-2.2-0.3-2.8-1c-0.6-0.7-0.9-1.7-0.9-3
		c0-0.9,0.2-1.6,0.5-2.3c0.3-0.6,0.8-1.1,1.4-1.4c0.6-0.3,1.3-0.5,2.1-0.5c0.5,0,0.9,0.1,1.3,0.2c0.4,0.1,0.7,0.3,0.9,0.5
		c0.3,0.2,0.5,0.4,0.7,0.7c0.2,0.3,0.4,0.7,0.5,1.2c0.1,0.4,0.2,1,0.2,1.6h-5.1c0,1,0.2,1.7,0.5,2.1c0.3,0.5,0.9,0.7,1.6,0.7
		c0.4,0,0.8-0.1,1.1-0.2c0.3-0.2,0.7-0.4,1.1-0.8L101,428.4z M98.8,425c0-0.8-0.1-1.4-0.3-1.8c-0.2-0.4-0.5-0.6-0.9-0.6
		c-0.4,0-0.7,0.2-1,0.6c-0.2,0.4-0.4,1-0.4,1.8H98.8z"/>
	<path class="st1" d="M108,428.9c-0.5,0.4-0.9,0.7-1.3,0.8s-0.8,0.2-1.2,0.2c-0.8,0-1.4-0.2-1.8-0.6c-0.4-0.4-0.6-1.1-0.6-2v-4.5h-1
		v-0.6c0.3-0.1,0.6-0.1,0.7-0.2c0.2-0.1,0.3-0.3,0.4-0.4s0.2-0.4,0.2-0.7c0.1-0.3,0.1-0.7,0.1-1.1h1.9v2h2.3v1h-2.3v3.6
		c0,0.6,0,1.1,0.1,1.3c0.1,0.3,0.2,0.5,0.3,0.6c0.1,0.1,0.3,0.2,0.5,0.2c0.1,0,0.3,0,0.4,0c0.1,0,0.2-0.1,0.4-0.1
		c0.1-0.1,0.3-0.2,0.4-0.3L108,428.9z"/>
	<path class="st1" d="M108.5,429.3c0.3-0.1,0.4-0.2,0.5-0.3c0.1-0.1,0.2-0.3,0.2-0.5c0-0.2,0.1-0.5,0.1-1.1v-3.7c0-0.3,0-0.5,0-0.6
		c0-0.2-0.1-0.3-0.1-0.4c-0.1-0.1-0.2-0.2-0.3-0.2c-0.1-0.1-0.3-0.1-0.4-0.1v-0.5l2.2-0.1h1v5.7c0,0.3,0,0.5,0,0.7
		c0,0.2,0,0.3,0,0.4c0,0.1,0,0.2,0.1,0.2c0,0.1,0.1,0.1,0.1,0.2c0,0.1,0.1,0.1,0.2,0.2c0.1,0,0.2,0.1,0.4,0.1v0.5h-3.9V429.3z
		 M111.5,418.6v2h-2.2v-2H111.5z"/>
	<path class="st1" d="M119.8,427.8l0.6,0.7c-0.5,0.5-1,0.9-1.5,1.1c-0.5,0.2-1,0.3-1.6,0.3c-1.2,0-2.1-0.3-2.7-1s-0.9-1.7-0.9-3
		c0-0.9,0.2-1.6,0.5-2.3c0.3-0.6,0.8-1.1,1.4-1.5c0.6-0.3,1.3-0.5,2.2-0.5c0.4,0,0.9,0,1.3,0.1c0.4,0.1,0.8,0.1,1.2,0.3v1.9h-1.6
		c-0.1-0.5-0.2-0.9-0.4-1.1c-0.2-0.2-0.4-0.3-0.7-0.3c-0.2,0-0.4,0-0.6,0.1c-0.2,0.1-0.3,0.3-0.5,0.5c-0.1,0.2-0.2,0.6-0.3,1
		s-0.1,0.9-0.1,1.6c0,0.6,0.1,1.2,0.2,1.6c0.1,0.4,0.3,0.8,0.6,1c0.3,0.2,0.6,0.4,1,0.4c0.3,0,0.6-0.1,0.9-0.2
		C119.1,428.4,119.4,428.1,119.8,427.8z"/>
	<path class="st1" d="M123.6,427.4c0,0.2,0.1,0.5,0.1,0.7s0,0.5,0,0.7c0,0.4-0.1,0.8-0.2,1.2c-0.1,0.3-0.4,0.7-0.7,1
		c-0.3,0.3-0.8,0.7-1.3,1.1l-0.6-0.7c0.2-0.2,0.4-0.4,0.5-0.6c0.1-0.2,0.2-0.5,0.3-0.8c0.1-0.3,0.1-0.6,0.1-1c0-0.5,0-1-0.1-1.7
		H123.6z"/>
	<path class="st1" d="M132.3,427.8c0,0.2,0,0.4,0,0.5c0,0.2,0,0.3,0.1,0.4c0,0.1,0.1,0.2,0.1,0.3c0.1,0.1,0.1,0.1,0.3,0.2
		s0.2,0.1,0.4,0.1v0.5h-4.2v-0.5c0.2-0.1,0.4-0.1,0.5-0.2c0.1-0.1,0.2-0.1,0.3-0.3c0.1-0.1,0.1-0.2,0.1-0.4s0-0.4,0-0.6v-7
		c0-0.3,0-0.5,0-0.6c0-0.2,0-0.3-0.1-0.4c-0.1-0.1-0.1-0.2-0.3-0.3c-0.1-0.1-0.3-0.1-0.5-0.2v-0.5h4.2v0.5c-0.2,0.1-0.4,0.1-0.5,0.2
		c-0.1,0.1-0.2,0.1-0.2,0.2c-0.1,0.1-0.1,0.2-0.1,0.4c0,0.2,0,0.4,0,0.7V427.8z"/>
	<path class="st1" d="M137.6,422.9L137.6,422.9c0.6-0.4,1-0.8,1.4-0.9c0.4-0.2,0.8-0.3,1.2-0.3c0.4,0,0.7,0.1,1,0.2
		c0.3,0.1,0.5,0.3,0.7,0.4c0.2,0.2,0.3,0.5,0.4,0.8c0.5-0.5,1-0.9,1.4-1.1c0.4-0.2,0.8-0.3,1.3-0.3c0.4,0,0.8,0.1,1.1,0.2
		c0.3,0.1,0.5,0.3,0.7,0.5s0.3,0.5,0.4,0.9c0.1,0.4,0.1,0.8,0.1,1.3v2.9c0,0.2,0,0.5,0,0.7c0,0.2,0,0.4,0.1,0.5
		c0,0.1,0.1,0.2,0.1,0.3c0.1,0.1,0.1,0.1,0.2,0.2s0.2,0.1,0.4,0.1v0.5h-3.9v-0.5c0.2-0.1,0.4-0.1,0.5-0.3c0.1-0.1,0.2-0.3,0.2-0.5
		c0-0.2,0.1-0.6,0.1-1.1v-2.2c0-0.5,0-0.9,0-1.2s-0.1-0.5-0.2-0.7s-0.2-0.3-0.3-0.4c-0.1-0.1-0.3-0.1-0.5-0.1c-0.1,0-0.3,0-0.4,0.1
		c-0.1,0-0.2,0.1-0.4,0.2c-0.1,0.1-0.2,0.2-0.3,0.3c-0.1,0.1-0.2,0.2-0.2,0.3c-0.1,0.1-0.1,0.2-0.1,0.4c0,0.1,0,0.4,0,0.7v2.6
		c0,0.4,0,0.6,0,0.8c0,0.2,0,0.3,0.1,0.5c0,0.1,0.1,0.2,0.2,0.3c0.1,0.1,0.2,0.1,0.4,0.2v0.5h-3.8v-0.5c0.2-0.1,0.4-0.1,0.5-0.3
		c0.1-0.1,0.2-0.3,0.2-0.5s0-0.6,0-1.1v-2.2c0-0.4,0-0.7,0-0.9c0-0.2,0-0.4-0.1-0.6s-0.1-0.3-0.1-0.4c-0.1-0.1-0.1-0.2-0.2-0.3
		c-0.1-0.1-0.2-0.1-0.3-0.2c-0.1,0-0.2-0.1-0.4-0.1c-0.2,0-0.4,0.1-0.6,0.2c-0.2,0.1-0.4,0.3-0.5,0.5c-0.1,0.2-0.2,0.5-0.2,0.7v3.1
		c0,0.5,0,0.9,0,1.1c0,0.2,0.1,0.4,0.2,0.5s0.3,0.2,0.5,0.3v0.5h-3.9v-0.5c0.3-0.1,0.4-0.2,0.5-0.3c0.1-0.1,0.2-0.3,0.2-0.5
		c0-0.2,0.1-0.5,0.1-1.1v-3.3c0-0.4,0-0.7,0-0.9c0-0.2,0-0.3-0.1-0.5c-0.1-0.1-0.1-0.2-0.2-0.3c-0.1-0.1-0.3-0.1-0.5-0.2v-0.5
		l2.2-0.1h1L137.6,422.9z"/>
	<path class="st1" d="M152.3,431.3c0,0.4,0,0.7,0.1,0.9c0,0.2,0.1,0.3,0.2,0.4c0.1,0.1,0.3,0.2,0.6,0.2v0.5h-4v-0.5
		c0.3-0.1,0.4-0.2,0.5-0.2c0.1-0.1,0.2-0.2,0.2-0.4c0-0.2,0.1-0.5,0.1-0.9v-7c0-0.4,0-0.7,0-0.8c0-0.2,0-0.3-0.1-0.4
		c0-0.1-0.1-0.2-0.1-0.3c-0.1-0.1-0.1-0.1-0.2-0.2c-0.1-0.1-0.3-0.1-0.5-0.1v-0.5l2.2-0.1h1l-0.1,1.2l0.1,0c0.5-0.4,0.9-0.8,1.3-1
		c0.4-0.2,0.8-0.3,1.2-0.3c1,0,1.7,0.3,2.2,1s0.7,1.7,0.7,3c0,0.9-0.1,1.7-0.4,2.3c-0.3,0.6-0.7,1.1-1.3,1.4s-1.2,0.5-2.1,0.5
		c-0.6,0-1.1-0.1-1.6-0.2V431.3z M152.3,427.2c0,0.7,0.1,1.1,0.3,1.5c0.2,0.3,0.6,0.5,1.1,0.5c0.5,0,0.9-0.3,1.1-0.8
		c0.3-0.5,0.4-1.3,0.4-2.2c0-1.1-0.1-1.9-0.4-2.4c-0.2-0.5-0.6-0.8-1.1-0.8c-0.2,0-0.5,0.1-0.7,0.2c-0.2,0.1-0.4,0.3-0.6,0.5
		c-0.1,0.2-0.2,0.5-0.2,0.8V427.2z"/>
	<path class="st1" d="M162.2,427.5c0,0.5,0,0.9,0,1.1s0.1,0.3,0.2,0.5c0.1,0.1,0.3,0.2,0.6,0.3v0.5H159v-0.5c0.2,0,0.3-0.1,0.4-0.1
		s0.2-0.1,0.2-0.2c0.1-0.1,0.1-0.2,0.1-0.3c0-0.1,0.1-0.2,0.1-0.4s0-0.4,0-0.8v-6.3c0-0.5,0-0.8,0-1c0-0.2,0-0.4,0-0.5
		c0-0.1-0.1-0.3-0.1-0.4c-0.1-0.1-0.1-0.2-0.2-0.2c-0.1-0.1-0.3-0.1-0.5-0.1v-0.5l2.2-0.1h1V427.5z"/>
	<path class="st1" d="M169,428.8l-0.1,0c-0.4,0.4-0.9,0.7-1.3,0.9c-0.4,0.2-0.9,0.3-1.3,0.3c-0.5,0-0.9-0.1-1.2-0.3
		c-0.3-0.2-0.6-0.4-0.8-0.7c-0.2-0.3-0.3-0.6-0.3-1c0-0.8,0.4-1.4,1.2-1.9c0.8-0.5,2-0.7,3.5-0.9v-0.8c0-0.5-0.1-0.9-0.2-1.2
		c-0.1-0.3-0.3-0.5-0.4-0.6s-0.4-0.2-0.6-0.2s-0.5,0-0.6,0.1c-0.2,0.1-0.3,0.2-0.5,0.5c-0.1,0.2-0.3,0.6-0.3,1h-1.5v-1.5
		c0.5-0.2,0.9-0.4,1.2-0.5s0.7-0.2,1-0.3c0.3-0.1,0.6-0.1,0.9-0.2s0.5,0,0.8,0c0.6,0,1.2,0.1,1.6,0.3c0.4,0.2,0.7,0.5,0.9,0.8
		s0.3,0.9,0.3,1.6v3.1c0,0.4,0,0.6,0,0.8c0,0.2,0,0.3,0.1,0.4c0,0.1,0.1,0.2,0.1,0.2s0.1,0.1,0.2,0.1c0.1,0,0.2,0.1,0.4,0.1v0.5h-3
		L169,428.8z M168.7,426c-0.8,0-1.4,0.2-1.8,0.5c-0.4,0.3-0.6,0.7-0.6,1.3c0,0.3,0.1,0.6,0.3,0.8c0.2,0.2,0.4,0.3,0.8,0.3
		c0.2,0,0.5-0.1,0.7-0.2c0.2-0.1,0.4-0.3,0.5-0.5c0.1-0.2,0.2-0.5,0.2-0.7V426z"/>
	<path class="st1" d="M181.8,429.8h-3.9v-0.5c0.2-0.1,0.4-0.1,0.5-0.3s0.2-0.3,0.2-0.5c0-0.2,0.1-0.5,0.1-1.1v-2.2
		c0-0.4,0-0.7,0-0.9s0-0.4-0.1-0.6c0-0.2-0.1-0.3-0.1-0.4c-0.1-0.1-0.1-0.2-0.2-0.3c-0.1-0.1-0.2-0.1-0.3-0.1s-0.2,0-0.4,0
		c-0.2,0-0.4,0.1-0.6,0.2s-0.4,0.3-0.6,0.5s-0.2,0.5-0.2,0.7v3.1c0,0.5,0,0.9,0,1.1c0,0.2,0.1,0.4,0.2,0.5c0.1,0.1,0.3,0.2,0.5,0.3
		v0.5h-3.9v-0.5c0.3-0.1,0.4-0.2,0.5-0.3c0.1-0.1,0.2-0.3,0.2-0.5c0-0.2,0.1-0.5,0.1-1.1v-3.3c0-0.4,0-0.7,0-0.9
		c0-0.2,0-0.3-0.1-0.5c-0.1-0.1-0.1-0.2-0.2-0.3c-0.1-0.1-0.3-0.1-0.5-0.2v-0.5l2.2-0.1h1l-0.1,1.2l0.1,0c0.3-0.3,0.6-0.5,0.9-0.7
		c0.3-0.2,0.5-0.3,0.8-0.4c0.3-0.1,0.6-0.1,0.9-0.1c0.4,0,0.8,0.1,1.1,0.2c0.3,0.1,0.5,0.3,0.7,0.6c0.2,0.2,0.3,0.5,0.4,0.9
		c0.1,0.3,0.1,0.8,0.1,1.2v2.9c0,0.2,0,0.5,0,0.7c0,0.2,0,0.4,0.1,0.5c0,0.1,0.1,0.2,0.1,0.3c0.1,0.1,0.1,0.1,0.2,0.2
		c0.1,0.1,0.2,0.1,0.4,0.1V429.8z"/>
	<path class="st1" d="M188.6,428.9c-0.5,0.4-0.9,0.7-1.3,0.8s-0.8,0.2-1.2,0.2c-0.8,0-1.4-0.2-1.8-0.6c-0.4-0.4-0.6-1.1-0.6-2v-4.5
		h-1v-0.6c0.3-0.1,0.6-0.1,0.7-0.2c0.2-0.1,0.3-0.3,0.4-0.4s0.2-0.4,0.2-0.7c0.1-0.3,0.1-0.7,0.1-1.1h1.9v2h2.3v1H186v3.6
		c0,0.6,0,1.1,0.1,1.3c0.1,0.3,0.2,0.5,0.3,0.6c0.1,0.1,0.3,0.2,0.5,0.2c0.1,0,0.3,0,0.4,0c0.1,0,0.2-0.1,0.4-0.1
		c0.1-0.1,0.3-0.2,0.4-0.3L188.6,428.9z"/>
	<path class="st1" d="M191.5,427.4c0,0.2,0.1,0.5,0.1,0.7s0,0.5,0,0.7c0,0.4-0.1,0.8-0.2,1.2c-0.1,0.3-0.4,0.7-0.7,1
		c-0.3,0.3-0.8,0.7-1.3,1.1l-0.6-0.7c0.2-0.2,0.4-0.4,0.5-0.6c0.1-0.2,0.2-0.5,0.3-0.8c0.1-0.3,0.1-0.6,0.1-1c0-0.5,0-1-0.1-1.7
		H191.5z"/>
	<path class="st1" d="M197.9,427.1c0.1,0.6,0.4,1.1,0.7,1.4c0.3,0.3,0.8,0.5,1.4,0.5c0.3,0,0.6-0.1,0.9-0.2s0.5-0.3,0.6-0.5
		c0.2-0.2,0.2-0.5,0.2-0.9c0-0.3-0.1-0.6-0.2-0.9c-0.1-0.2-0.3-0.5-0.6-0.7c-0.3-0.2-0.7-0.5-1.1-0.7c-0.4-0.2-0.8-0.4-1.1-0.7
		s-0.6-0.5-0.9-0.7c-0.2-0.3-0.4-0.6-0.6-0.9c-0.1-0.3-0.2-0.7-0.2-1.1c0-0.7,0.2-1.2,0.5-1.7s0.8-0.8,1.4-1.1
		c0.6-0.2,1.3-0.4,2.2-0.4c0.5,0,0.9,0,1.4,0.1s0.9,0.1,1.5,0.3v2.3h-1.1c-0.1-0.4-0.2-0.8-0.4-1c-0.2-0.2-0.4-0.4-0.6-0.6
		s-0.5-0.2-0.9-0.2c-0.3,0-0.6,0.1-0.8,0.2c-0.2,0.1-0.4,0.3-0.6,0.5c-0.1,0.2-0.2,0.5-0.2,0.8c0,0.3,0.1,0.6,0.2,0.8
		c0.1,0.2,0.3,0.5,0.6,0.7c0.3,0.2,0.7,0.5,1.2,0.7c0.7,0.3,1.2,0.7,1.6,1c0.4,0.3,0.7,0.7,0.8,1.1c0.2,0.4,0.3,0.8,0.3,1.4
		c0,0.7-0.2,1.2-0.5,1.7s-0.8,0.9-1.3,1.1c-0.6,0.3-1.3,0.4-2,0.4c-0.5,0-1.1,0-1.7-0.1c-0.6-0.1-1.2-0.2-1.7-0.3v-2.5H197.9z"/>
	<path class="st1" d="M212.6,428.4c-0.5,0.6-1.1,1-1.6,1.2c-0.5,0.2-1.2,0.4-1.9,0.4c-1.3,0-2.2-0.3-2.8-1c-0.6-0.7-0.9-1.7-0.9-3
		c0-0.9,0.2-1.6,0.5-2.3c0.3-0.6,0.8-1.1,1.4-1.4c0.6-0.3,1.3-0.5,2.1-0.5c0.5,0,0.9,0.1,1.3,0.2c0.4,0.1,0.7,0.3,0.9,0.5
		c0.3,0.2,0.5,0.4,0.7,0.7c0.2,0.3,0.4,0.7,0.5,1.2c0.1,0.4,0.2,1,0.2,1.6h-5.1c0,1,0.2,1.7,0.5,2.1c0.3,0.5,0.9,0.7,1.6,0.7
		c0.4,0,0.8-0.1,1.1-0.2c0.3-0.2,0.7-0.4,1.1-0.8L212.6,428.4z M210.5,425c0-0.8-0.1-1.4-0.3-1.8c-0.2-0.4-0.5-0.6-0.9-0.6
		c-0.4,0-0.7,0.2-1,0.6c-0.2,0.4-0.4,1-0.4,1.8H210.5z"/>
	<path class="st1" d="M221.9,427.5c0,0.4,0,0.7,0,0.9c0,0.2,0,0.3,0.1,0.5c0,0.1,0.1,0.2,0.2,0.3c0.1,0.1,0.3,0.1,0.5,0.2v0.5
		l-2.2,0.1h-1l0.1-1.2l-0.1,0c-0.4,0.4-0.8,0.7-1.2,0.9c-0.4,0.2-0.8,0.3-1.2,0.3c-1,0-1.7-0.3-2.2-1c-0.5-0.7-0.7-1.7-0.7-3
		c0-0.9,0.1-1.7,0.4-2.3c0.3-0.6,0.7-1.1,1.3-1.4c0.6-0.3,1.3-0.5,2.1-0.5c0.2,0,0.5,0,0.7,0c0.2,0,0.5,0.1,0.8,0.2v-0.7
		c0-0.6,0-1,0-1.2s0-0.4-0.1-0.5c-0.1-0.1-0.1-0.2-0.2-0.3c-0.1-0.1-0.3-0.1-0.6-0.2v-0.5l2.2-0.1h1V427.5z M219.6,424.5
		c0-0.7-0.1-1.1-0.3-1.5c-0.2-0.3-0.6-0.5-1-0.5c-0.3,0-0.6,0.1-0.9,0.4c-0.2,0.2-0.4,0.6-0.5,1c-0.1,0.5-0.2,1-0.2,1.6
		c0,1.1,0.1,1.8,0.3,2.4c0.2,0.5,0.6,0.8,1.1,0.8c0.2,0,0.5-0.1,0.7-0.2c0.2-0.1,0.4-0.3,0.6-0.5c0.2-0.2,0.2-0.5,0.2-0.8V424.5z"/>
	<path class="st1" d="M228.7,428.8l-0.1,0c-0.4,0.4-0.9,0.7-1.3,0.9c-0.4,0.2-0.9,0.3-1.3,0.3c-0.5,0-0.9-0.1-1.2-0.3
		c-0.3-0.2-0.6-0.4-0.8-0.7c-0.2-0.3-0.3-0.6-0.3-1c0-0.8,0.4-1.4,1.2-1.9c0.8-0.5,2-0.7,3.5-0.9v-0.8c0-0.5-0.1-0.9-0.2-1.2
		c-0.1-0.3-0.3-0.5-0.4-0.6s-0.4-0.2-0.6-0.2s-0.5,0-0.6,0.1c-0.2,0.1-0.3,0.2-0.5,0.5c-0.1,0.2-0.3,0.6-0.3,1h-1.5v-1.5
		c0.5-0.2,0.9-0.4,1.2-0.5s0.7-0.2,1-0.3c0.3-0.1,0.6-0.1,0.9-0.2s0.5,0,0.8,0c0.6,0,1.2,0.1,1.6,0.3c0.4,0.2,0.7,0.5,0.9,0.8
		s0.3,0.9,0.3,1.6v3.1c0,0.4,0,0.6,0,0.8c0,0.2,0,0.3,0.1,0.4c0,0.1,0.1,0.2,0.1,0.2s0.1,0.1,0.2,0.1c0.1,0,0.2,0.1,0.4,0.1v0.5h-3
		L228.7,428.8z M228.5,426c-0.8,0-1.4,0.2-1.8,0.5c-0.4,0.3-0.6,0.7-0.6,1.3c0,0.3,0.1,0.6,0.3,0.8c0.2,0.2,0.4,0.3,0.8,0.3
		c0.2,0,0.5-0.1,0.7-0.2c0.2-0.1,0.4-0.3,0.5-0.5c0.1-0.2,0.2-0.5,0.2-0.7V426z"/>
	<path class="st1" d="M238.3,428.9c-0.5,0.4-0.9,0.7-1.3,0.8s-0.8,0.2-1.2,0.2c-0.8,0-1.4-0.2-1.8-0.6c-0.4-0.4-0.6-1.1-0.6-2v-4.5
		h-1v-0.6c0.3-0.1,0.6-0.1,0.7-0.2c0.2-0.1,0.3-0.3,0.4-0.4s0.2-0.4,0.2-0.7c0.1-0.3,0.1-0.7,0.1-1.1h1.9v2h2.3v1h-2.3v3.6
		c0,0.6,0,1.1,0.1,1.3c0.1,0.3,0.2,0.5,0.3,0.6c0.1,0.1,0.3,0.2,0.5,0.2c0.1,0,0.3,0,0.4,0c0.1,0,0.2-0.1,0.4-0.1
		c0.1-0.1,0.3-0.2,0.4-0.3L238.3,428.9z"/>
	<path class="st1" d="M238.8,429.3c0.3-0.1,0.4-0.2,0.5-0.3c0.1-0.1,0.2-0.3,0.2-0.5c0-0.2,0.1-0.5,0.1-1.1v-3.7c0-0.3,0-0.5,0-0.6
		c0-0.2-0.1-0.3-0.1-0.4c-0.1-0.1-0.2-0.2-0.3-0.2c-0.1-0.1-0.3-0.1-0.4-0.1v-0.5l2.2-0.1h1v5.7c0,0.3,0,0.5,0,0.7
		c0,0.2,0,0.3,0,0.4c0,0.1,0,0.2,0.1,0.2c0,0.1,0.1,0.1,0.1,0.2c0,0.1,0.1,0.1,0.2,0.2c0.1,0,0.2,0.1,0.4,0.1v0.5h-3.9V429.3z
		 M241.9,418.6v2h-2.2v-2H241.9z"/>
	<path class="st1" d="M247.9,430c-0.8,0-1.5-0.1-2-0.4c-0.6-0.3-1-0.7-1.3-1.3c-0.3-0.6-0.5-1.4-0.5-2.3c0-0.7,0.1-1.3,0.3-1.9
		s0.5-1,0.8-1.3s0.8-0.6,1.3-0.8c0.5-0.2,1-0.2,1.6-0.2c1.3,0,2.3,0.3,2.9,1c0.7,0.7,1,1.7,1,3c0,0.9-0.2,1.7-0.5,2.3
		s-0.8,1.1-1.4,1.4C249.5,429.8,248.8,430,247.9,430z M246.5,425.7c0,1.1,0.1,2,0.4,2.6c0.3,0.6,0.6,0.9,1.2,0.9
		c0.3,0,0.5-0.1,0.7-0.2c0.2-0.1,0.3-0.4,0.5-0.6c0.1-0.3,0.2-0.6,0.2-1s0.1-0.8,0.1-1.3c0-1.2-0.1-2-0.4-2.6
		c-0.3-0.6-0.6-0.9-1.1-0.9c-0.4,0-0.7,0.1-0.9,0.3c-0.2,0.2-0.4,0.6-0.5,1S246.5,425,246.5,425.7z"/>
	<path class="st1" d="M262.2,429.8h-3.9v-0.5c0.2-0.1,0.4-0.1,0.5-0.3s0.2-0.3,0.2-0.5c0-0.2,0.1-0.5,0.1-1.1v-2.2
		c0-0.4,0-0.7,0-0.9s0-0.4-0.1-0.6c0-0.2-0.1-0.3-0.1-0.4c-0.1-0.1-0.1-0.2-0.2-0.3c-0.1-0.1-0.2-0.1-0.3-0.1s-0.2,0-0.4,0
		c-0.2,0-0.4,0.1-0.6,0.2s-0.4,0.3-0.6,0.5s-0.2,0.5-0.2,0.7v3.1c0,0.5,0,0.9,0,1.1c0,0.2,0.1,0.4,0.2,0.5c0.1,0.1,0.3,0.2,0.5,0.3
		v0.5h-3.9v-0.5c0.3-0.1,0.4-0.2,0.5-0.3c0.1-0.1,0.2-0.3,0.2-0.5c0-0.2,0.1-0.5,0.1-1.1v-3.3c0-0.4,0-0.7,0-0.9
		c0-0.2,0-0.3-0.1-0.5c-0.1-0.1-0.1-0.2-0.2-0.3c-0.1-0.1-0.3-0.1-0.5-0.2v-0.5l2.2-0.1h1l-0.1,1.2l0.1,0c0.3-0.3,0.6-0.5,0.9-0.7
		c0.3-0.2,0.5-0.3,0.8-0.4c0.3-0.1,0.6-0.1,0.9-0.1c0.4,0,0.8,0.1,1.1,0.2c0.3,0.1,0.5,0.3,0.7,0.6c0.2,0.2,0.3,0.5,0.4,0.9
		c0.1,0.3,0.1,0.8,0.1,1.2v2.9c0,0.2,0,0.5,0,0.7c0,0.2,0,0.4,0.1,0.5c0,0.1,0.1,0.2,0.1,0.3c0.1,0.1,0.1,0.1,0.2,0.2
		c0.1,0.1,0.2,0.1,0.4,0.1V429.8z"/>
	<path class="st1" d="M265.6,427.4c0,0.2,0.1,0.5,0.1,0.7s0,0.5,0,0.7c0,0.4-0.1,0.8-0.2,1.2c-0.1,0.3-0.4,0.7-0.7,1
		c-0.3,0.3-0.8,0.7-1.3,1.1l-0.6-0.7c0.2-0.2,0.4-0.4,0.5-0.6c0.1-0.2,0.2-0.5,0.3-0.8c0.1-0.3,0.1-0.6,0.1-1c0-0.5,0-1-0.1-1.7
		H265.6z"/>
	<path class="st1" d="M277.7,428.9c-0.6,0.4-1.1,0.7-1.6,0.8s-1.1,0.2-1.8,0.2c-1.1,0-1.9-0.2-2.5-0.7c-0.6-0.5-0.9-1.1-0.9-1.9
		c0-0.3,0-0.5,0.1-0.7c0.1-0.2,0.2-0.5,0.3-0.7c0.1-0.2,0.3-0.4,0.5-0.6s0.4-0.4,0.7-0.6c0.3-0.2,0.7-0.4,1.1-0.7
		c-0.3-0.4-0.5-0.8-0.7-1c-0.1-0.3-0.2-0.5-0.3-0.8c-0.1-0.3-0.1-0.5-0.1-0.8c0-0.5,0.1-1,0.4-1.4c0.3-0.4,0.7-0.7,1.3-1
		c0.6-0.2,1.2-0.4,1.8-0.4c0.9,0,1.6,0.2,2.1,0.5c0.5,0.4,0.8,0.9,0.8,1.5c0,0.2,0,0.5-0.1,0.7s-0.2,0.4-0.4,0.7
		c-0.2,0.2-0.4,0.4-0.7,0.7c-0.3,0.2-0.8,0.5-1.4,0.9c0.3,0.4,0.8,1,1.2,1.5s0.9,1,1.3,1.4c0.2-0.3,0.4-0.6,0.5-0.9
		c0.1-0.3,0.2-0.6,0.2-0.8c0-0.3-0.1-0.5-0.2-0.6c-0.1-0.1-0.3-0.2-0.6-0.2v-0.5h2.5v0.5c0,0.1,0,0.2-0.1,0.5c0,0.1-0.1,0.3-0.1,0.4
		c0,0.2-0.1,0.3-0.2,0.4c-0.1,0.1-0.1,0.3-0.2,0.4c-0.1,0.1-0.2,0.3-0.2,0.4c-0.1,0.1-0.2,0.3-0.3,0.4c-0.1,0.1-0.2,0.3-0.3,0.4
		c-0.1,0.1-0.2,0.3-0.4,0.4c0.2,0.3,0.4,0.5,0.6,0.7s0.3,0.3,0.5,0.3c0.1,0.1,0.3,0.1,0.4,0.1c0.1,0,0.2,0,0.4-0.1
		c0.1-0.1,0.3-0.2,0.5-0.4l0.5,0.7c-0.4,0.4-0.8,0.7-1.2,0.9s-0.8,0.3-1.2,0.3c-0.4,0-0.8-0.1-1.2-0.2
		C278.4,429.6,278.1,429.3,277.7,428.9z M276.9,428.2c-0.4-0.5-0.9-1-1.4-1.7c-0.6-0.7-1-1.2-1.3-1.6c-0.3,0.3-0.6,0.5-0.7,0.8
		c-0.2,0.3-0.2,0.7-0.2,1c0,0.6,0.2,1,0.5,1.4c0.3,0.3,0.8,0.5,1.4,0.5c0.4,0,0.7,0,0.9-0.1C276.4,428.5,276.6,428.3,276.9,428.2z
		 M275.7,423c0.5-0.3,0.9-0.7,1.2-1c0.3-0.4,0.4-0.7,0.4-1.1c0-0.4-0.1-0.7-0.3-0.9c-0.2-0.2-0.5-0.3-0.8-0.3
		c-0.2,0-0.4,0.1-0.6,0.2c-0.2,0.1-0.3,0.3-0.5,0.5s-0.2,0.5-0.2,0.8c0,0.3,0.1,0.6,0.2,0.9C275.2,422.2,275.4,422.6,275.7,423z"/>
	<path class="st1" d="M295.2,419.1v2.3h-1.1c-0.1-0.5-0.3-0.8-0.4-1c-0.2-0.2-0.4-0.4-0.6-0.5c-0.2-0.1-0.6-0.2-1-0.2
		c-0.5,0-1,0.2-1.4,0.5s-0.7,0.8-1,1.6s-0.4,1.6-0.4,2.7c0,0.9,0.1,1.8,0.2,2.4c0.2,0.7,0.4,1.2,0.7,1.6c0.3,0.4,0.7,0.6,1.2,0.6
		c0.5,0,0.8-0.1,1-0.4c0.2-0.3,0.3-0.7,0.3-1.3v-0.3c0-0.4,0-0.7,0-0.9c0-0.2-0.1-0.3-0.1-0.4c-0.1-0.1-0.1-0.2-0.2-0.2
		c-0.1-0.1-0.3-0.1-0.5-0.2v-0.5h4.1v0.5c-0.3,0.1-0.5,0.2-0.5,0.3c-0.1,0.1-0.2,0.2-0.2,0.4c0,0.2-0.1,0.4-0.1,0.7v3l-1.2,0.2
		l-0.5-0.6c-0.6,0.4-1.4,0.6-2.2,0.6c-1.6,0-2.7-0.5-3.5-1.4c-0.8-0.9-1.2-2.3-1.2-4.2c0-1,0.1-1.8,0.4-2.6c0.3-0.7,0.7-1.3,1.1-1.8
		s1-0.8,1.6-1c0.6-0.2,1.3-0.3,2-0.3C293.1,418.7,294.2,418.9,295.2,419.1z"/>
	<path class="st1" d="M304.6,428.4c-0.5,0.6-1.1,1-1.6,1.2c-0.5,0.2-1.2,0.4-1.9,0.4c-1.3,0-2.2-0.3-2.8-1s-0.9-1.7-0.9-3
		c0-0.9,0.2-1.6,0.5-2.3c0.3-0.6,0.8-1.1,1.4-1.4c0.6-0.3,1.3-0.5,2.1-0.5c0.5,0,0.9,0.1,1.3,0.2c0.4,0.1,0.7,0.3,0.9,0.5
		c0.3,0.2,0.5,0.4,0.7,0.7c0.2,0.3,0.4,0.7,0.5,1.2c0.1,0.4,0.2,1,0.2,1.6h-5.1c0,1,0.2,1.7,0.5,2.1s0.9,0.7,1.6,0.7
		c0.4,0,0.8-0.1,1.1-0.2c0.3-0.2,0.7-0.4,1.1-0.8L304.6,428.4z M302.4,425c0-0.8-0.1-1.4-0.3-1.8c-0.2-0.4-0.5-0.6-0.9-0.6
		c-0.4,0-0.7,0.2-1,0.6c-0.2,0.4-0.4,1-0.4,1.8H302.4z"/>
	<path class="st1" d="M314.8,429.8h-3.9v-0.5c0.2-0.1,0.4-0.1,0.5-0.3s0.2-0.3,0.2-0.5c0-0.2,0.1-0.5,0.1-1.1v-2.2
		c0-0.4,0-0.7,0-0.9s0-0.4-0.1-0.6c0-0.2-0.1-0.3-0.1-0.4s-0.1-0.2-0.2-0.3s-0.2-0.1-0.3-0.1s-0.2,0-0.4,0c-0.2,0-0.4,0.1-0.6,0.2
		c-0.2,0.1-0.4,0.3-0.6,0.5s-0.2,0.5-0.2,0.7v3.1c0,0.5,0,0.9,0,1.1c0,0.2,0.1,0.4,0.2,0.5s0.3,0.2,0.5,0.3v0.5h-3.9v-0.5
		c0.3-0.1,0.4-0.2,0.5-0.3c0.1-0.1,0.2-0.3,0.2-0.5c0-0.2,0.1-0.5,0.1-1.1v-3.3c0-0.4,0-0.7,0-0.9c0-0.2,0-0.3-0.1-0.5
		c-0.1-0.1-0.1-0.2-0.2-0.3c-0.1-0.1-0.3-0.1-0.5-0.2v-0.5l2.2-0.1h1l-0.1,1.2l0.1,0c0.3-0.3,0.6-0.5,0.9-0.7
		c0.3-0.2,0.5-0.3,0.8-0.4c0.3-0.1,0.6-0.1,0.9-0.1c0.4,0,0.8,0.1,1.1,0.2c0.3,0.1,0.5,0.3,0.7,0.6c0.2,0.2,0.3,0.5,0.4,0.9
		c0.1,0.3,0.1,0.8,0.1,1.2v2.9c0,0.2,0,0.5,0,0.7c0,0.2,0,0.4,0.1,0.5c0,0.1,0.1,0.2,0.1,0.3c0.1,0.1,0.1,0.1,0.2,0.2
		c0.1,0.1,0.2,0.1,0.4,0.1V429.8z"/>
	<path class="st1" d="M323.3,428.4c-0.5,0.6-1.1,1-1.6,1.2c-0.5,0.2-1.2,0.4-1.9,0.4c-1.3,0-2.2-0.3-2.8-1s-0.9-1.7-0.9-3
		c0-0.9,0.2-1.6,0.5-2.3c0.3-0.6,0.8-1.1,1.4-1.4c0.6-0.3,1.3-0.5,2.1-0.5c0.5,0,0.9,0.1,1.3,0.2c0.4,0.1,0.7,0.3,0.9,0.5
		c0.3,0.2,0.5,0.4,0.7,0.7c0.2,0.3,0.4,0.7,0.5,1.2c0.1,0.4,0.2,1,0.2,1.6h-5.1c0,1,0.2,1.7,0.5,2.1s0.9,0.7,1.6,0.7
		c0.4,0,0.8-0.1,1.1-0.2c0.3-0.2,0.7-0.4,1.1-0.8L323.3,428.4z M321.2,425c0-0.8-0.1-1.4-0.3-1.8c-0.2-0.4-0.5-0.6-0.9-0.6
		c-0.4,0-0.7,0.2-1,0.6c-0.2,0.4-0.4,1-0.4,1.8H321.2z"/>
	<path class="st1" d="M327.8,423l0.1,0c0.4-0.5,0.8-0.8,1.2-1c0.4-0.2,0.9-0.3,1.3-0.3c0.3,0,0.7,0,1,0.1v2.2H330
		c-0.1-0.3-0.2-0.6-0.4-0.7c-0.1-0.2-0.3-0.2-0.6-0.2c-0.1,0-0.2,0-0.4,0.1c-0.1,0.1-0.3,0.2-0.4,0.3s-0.2,0.3-0.3,0.4
		c-0.1,0.1-0.1,0.3-0.1,0.4s0,0.3,0,0.6v2.6c0,0.5,0,0.9,0.1,1.1c0,0.2,0.1,0.4,0.2,0.5c0.1,0.1,0.3,0.2,0.6,0.2v0.5h-4v-0.5
		c0.3-0.1,0.4-0.2,0.5-0.3c0.1-0.1,0.2-0.3,0.2-0.5c0-0.2,0.1-0.5,0.1-1.1v-3.3c0-0.4,0-0.7,0-0.9c0-0.2,0-0.3-0.1-0.5
		c-0.1-0.1-0.1-0.2-0.2-0.3c-0.1-0.1-0.3-0.1-0.5-0.2v-0.5l2.2-0.1h1L327.8,423z"/>
	<path class="st1" d="M336.9,428.8l-0.1,0c-0.4,0.4-0.9,0.7-1.3,0.9c-0.4,0.2-0.9,0.3-1.3,0.3c-0.5,0-0.9-0.1-1.2-0.3
		s-0.6-0.4-0.8-0.7s-0.3-0.6-0.3-1c0-0.8,0.4-1.4,1.2-1.9s2-0.7,3.5-0.9v-0.8c0-0.5-0.1-0.9-0.2-1.2c-0.1-0.3-0.3-0.5-0.4-0.6
		s-0.4-0.2-0.6-0.2s-0.5,0-0.6,0.1c-0.2,0.1-0.3,0.2-0.5,0.5c-0.1,0.2-0.3,0.6-0.3,1h-1.5v-1.5c0.5-0.2,0.9-0.4,1.2-0.5
		c0.3-0.1,0.7-0.2,1-0.3c0.3-0.1,0.6-0.1,0.9-0.2c0.3,0,0.5,0,0.8,0c0.7,0,1.2,0.1,1.6,0.3s0.7,0.5,0.9,0.8s0.3,0.9,0.3,1.6v3.1
		c0,0.4,0,0.6,0,0.8c0,0.2,0,0.3,0.1,0.4s0.1,0.2,0.1,0.2s0.1,0.1,0.2,0.1c0.1,0,0.2,0.1,0.4,0.1v0.5h-3L336.9,428.8z M336.6,426
		c-0.8,0-1.4,0.2-1.8,0.5c-0.4,0.3-0.6,0.7-0.6,1.3c0,0.3,0.1,0.6,0.3,0.8c0.2,0.2,0.4,0.3,0.8,0.3c0.2,0,0.5-0.1,0.7-0.2
		c0.2-0.1,0.4-0.3,0.5-0.5c0.1-0.2,0.2-0.5,0.2-0.7V426z"/>
	<path class="st1" d="M344,427.5c0,0.5,0,0.9,0,1.1c0,0.2,0.1,0.3,0.2,0.5c0.1,0.1,0.3,0.2,0.6,0.3v0.5h-3.9v-0.5
		c0.2,0,0.3-0.1,0.4-0.1c0.1-0.1,0.2-0.1,0.2-0.2c0.1-0.1,0.1-0.2,0.1-0.3c0-0.1,0.1-0.2,0.1-0.4s0-0.4,0-0.8v-6.3c0-0.5,0-0.8,0-1
		c0-0.2,0-0.4,0-0.5s-0.1-0.3-0.1-0.4s-0.1-0.2-0.2-0.2c-0.1-0.1-0.3-0.1-0.5-0.1v-0.5l2.2-0.1h1V427.5z"/>
	<path class="st1" d="M354,418.8c0.9,0,1.6,0.1,2.2,0.2s1.1,0.4,1.6,0.7c0.5,0.3,0.8,0.7,1.1,1.1c0.3,0.4,0.5,0.9,0.6,1.5
		s0.2,1.2,0.2,1.9c0,0.8-0.1,1.6-0.3,2.3s-0.5,1.2-0.9,1.7c-0.3,0.4-0.8,0.8-1.3,1c-0.5,0.3-1.1,0.5-1.8,0.6
		c-0.6,0.1-1.3,0.1-2.2,0.1h-3.7v-0.5c0.2-0.1,0.4-0.1,0.5-0.2c0.1-0.1,0.2-0.1,0.3-0.3c0.1-0.1,0.1-0.2,0.1-0.4s0-0.4,0-0.6v-6.9
		c0-0.3,0-0.5,0-0.6s0-0.3-0.1-0.4s-0.1-0.2-0.3-0.3c-0.1-0.1-0.3-0.1-0.5-0.2v-0.5H354z M353.1,428.9c0.1,0,0.3,0,0.7,0
		c0.6,0,1.1-0.1,1.5-0.3c0.3-0.1,0.6-0.3,0.8-0.5c0.3-0.4,0.6-0.9,0.8-1.4c0.2-0.6,0.3-1.4,0.3-2.4c0-1-0.1-1.9-0.4-2.5
		c-0.3-0.7-0.7-1.2-1.2-1.5c-0.5-0.3-1.1-0.5-1.8-0.5c-0.3,0-0.6,0-0.7,0V428.9z"/>
	<path class="st1" d="M368.6,428.4c-0.5,0.6-1.1,1-1.6,1.2c-0.5,0.2-1.2,0.4-1.9,0.4c-1.3,0-2.2-0.3-2.8-1s-0.9-1.7-0.9-3
		c0-0.9,0.2-1.6,0.5-2.3c0.3-0.6,0.8-1.1,1.4-1.4c0.6-0.3,1.3-0.5,2.1-0.5c0.5,0,0.9,0.1,1.3,0.2c0.4,0.1,0.7,0.3,0.9,0.5
		c0.3,0.2,0.5,0.4,0.7,0.7c0.2,0.3,0.4,0.7,0.5,1.2c0.1,0.4,0.2,1,0.2,1.6h-5.1c0,1,0.2,1.7,0.5,2.1s0.9,0.7,1.6,0.7
		c0.4,0,0.8-0.1,1.1-0.2c0.3-0.2,0.7-0.4,1.1-0.8L368.6,428.4z M366.4,425c0-0.8-0.1-1.4-0.3-1.8c-0.2-0.4-0.5-0.6-0.9-0.6
		c-0.4,0-0.7,0.2-1,0.6c-0.2,0.4-0.4,1-0.4,1.8H366.4z"/>
	<path class="st1" d="M378.8,429.8h-3.9v-0.5c0.2-0.1,0.4-0.1,0.5-0.3s0.2-0.3,0.2-0.5c0-0.2,0.1-0.5,0.1-1.1v-2.2
		c0-0.4,0-0.7,0-0.9s0-0.4-0.1-0.6c0-0.2-0.1-0.3-0.1-0.4s-0.1-0.2-0.2-0.3s-0.2-0.1-0.3-0.1s-0.2,0-0.4,0c-0.2,0-0.4,0.1-0.6,0.2
		c-0.2,0.1-0.4,0.3-0.6,0.5s-0.2,0.5-0.2,0.7v3.1c0,0.5,0,0.9,0,1.1c0,0.2,0.1,0.4,0.2,0.5s0.3,0.2,0.5,0.3v0.5h-3.9v-0.5
		c0.3-0.1,0.4-0.2,0.5-0.3c0.1-0.1,0.2-0.3,0.2-0.5c0-0.2,0.1-0.5,0.1-1.1v-3.3c0-0.4,0-0.7,0-0.9c0-0.2,0-0.3-0.1-0.5
		c-0.1-0.1-0.1-0.2-0.2-0.3c-0.1-0.1-0.3-0.1-0.5-0.2v-0.5l2.2-0.1h1l-0.1,1.2l0.1,0c0.3-0.3,0.6-0.5,0.9-0.7
		c0.3-0.2,0.5-0.3,0.8-0.4c0.3-0.1,0.6-0.1,0.9-0.1c0.4,0,0.8,0.1,1.1,0.2c0.3,0.1,0.5,0.3,0.7,0.6c0.2,0.2,0.3,0.5,0.4,0.9
		c0.1,0.3,0.1,0.8,0.1,1.2v2.9c0,0.2,0,0.5,0,0.7c0,0.2,0,0.4,0.1,0.5c0,0.1,0.1,0.2,0.1,0.3c0.1,0.1,0.1,0.1,0.2,0.2
		c0.1,0.1,0.2,0.1,0.4,0.1V429.8z"/>
	<path class="st1" d="M385.5,428.9c-0.5,0.4-0.9,0.7-1.3,0.8s-0.8,0.2-1.2,0.2c-0.8,0-1.4-0.2-1.8-0.6c-0.4-0.4-0.6-1.1-0.6-2v-4.5
		h-1v-0.6c0.3-0.1,0.6-0.1,0.7-0.2c0.2-0.1,0.3-0.3,0.4-0.4s0.2-0.4,0.2-0.7c0.1-0.3,0.1-0.7,0.1-1.1h1.9v2h2.3v1H383v3.6
		c0,0.6,0,1.1,0.1,1.3c0.1,0.3,0.2,0.5,0.3,0.6c0.1,0.1,0.3,0.2,0.5,0.2c0.2,0,0.3,0,0.4,0c0.1,0,0.2-0.1,0.4-0.1
		c0.1-0.1,0.3-0.2,0.4-0.3L385.5,428.9z"/>
	<path class="st1" d="M386,429.3c0.3-0.1,0.4-0.2,0.5-0.3c0.1-0.1,0.2-0.3,0.2-0.5c0-0.2,0.1-0.5,0.1-1.1v-3.7c0-0.3,0-0.5,0-0.6
		s-0.1-0.3-0.1-0.4c-0.1-0.1-0.2-0.2-0.3-0.2s-0.3-0.1-0.4-0.1v-0.5l2.2-0.1h1v5.7c0,0.3,0,0.5,0,0.7c0,0.2,0,0.3,0,0.4
		c0,0.1,0,0.2,0.1,0.2c0,0.1,0.1,0.1,0.1,0.2c0,0.1,0.1,0.1,0.2,0.2c0.1,0,0.2,0.1,0.4,0.1v0.5H386V429.3z M389.1,418.6v2h-2.2v-2
		H389.1z"/>
	<path class="st1" d="M392.3,427.7c0.1,0.5,0.3,0.9,0.6,1.1c0.3,0.2,0.7,0.4,1.1,0.4c0.4,0,0.7-0.1,0.9-0.3s0.3-0.4,0.3-0.8
		c0-0.2,0-0.4-0.1-0.6c-0.1-0.2-0.2-0.3-0.5-0.4c-0.2-0.1-0.6-0.3-1.1-0.6c-0.3-0.1-0.6-0.3-0.8-0.4c-0.3-0.2-0.5-0.3-0.7-0.5
		s-0.3-0.4-0.5-0.7c-0.1-0.2-0.2-0.5-0.2-0.8c0-0.5,0.1-0.9,0.4-1.3s0.7-0.6,1.2-0.8c0.5-0.2,1.1-0.3,1.8-0.3c0.4,0,0.8,0,1.2,0
		s0.9,0.1,1.5,0.2v1.9h-1.1c-0.1-0.3-0.3-0.6-0.4-0.8c-0.1-0.2-0.3-0.3-0.5-0.4s-0.4-0.1-0.6-0.1c-0.4,0-0.6,0.1-0.8,0.2
		s-0.3,0.4-0.3,0.7c0,0.2,0,0.4,0.1,0.5c0.1,0.1,0.2,0.3,0.4,0.4c0.2,0.1,0.6,0.3,1.1,0.6c0.5,0.2,0.9,0.4,1.2,0.7
		c0.3,0.2,0.6,0.5,0.7,0.8c0.2,0.3,0.2,0.6,0.2,1c0,0.4-0.1,0.8-0.2,1.1s-0.4,0.6-0.7,0.8s-0.6,0.4-1,0.5c-0.4,0.1-0.9,0.1-1.3,0.1
		c-0.9,0-1.9-0.1-3-0.4v-1.9H392.3z"/>
	<path class="st1" d="M404.3,428.9c-0.5,0.4-0.9,0.7-1.3,0.8s-0.8,0.2-1.2,0.2c-0.8,0-1.4-0.2-1.8-0.6c-0.4-0.4-0.6-1.1-0.6-2v-4.5
		h-1v-0.6c0.3-0.1,0.6-0.1,0.7-0.2c0.2-0.1,0.3-0.3,0.4-0.4s0.2-0.4,0.2-0.7c0.1-0.3,0.1-0.7,0.1-1.1h1.9v2h2.3v1h-2.3v3.6
		c0,0.6,0,1.1,0.1,1.3c0.1,0.3,0.2,0.5,0.3,0.6c0.1,0.1,0.3,0.2,0.5,0.2c0.2,0,0.3,0,0.4,0c0.1,0,0.2-0.1,0.4-0.1
		c0.1-0.1,0.3-0.2,0.4-0.3L404.3,428.9z"/>
	<path class="st1" d="M407.8,423l0.1,0c0.4-0.5,0.8-0.8,1.2-1c0.4-0.2,0.9-0.3,1.3-0.3c0.3,0,0.7,0,1,0.1v2.2h-1.5
		c-0.1-0.3-0.2-0.6-0.4-0.7c-0.1-0.2-0.3-0.2-0.6-0.2c-0.1,0-0.2,0-0.4,0.1c-0.1,0.1-0.3,0.2-0.4,0.3s-0.2,0.3-0.3,0.4
		c-0.1,0.1-0.1,0.3-0.1,0.4s0,0.3,0,0.6v2.6c0,0.5,0,0.9,0.1,1.1c0,0.2,0.1,0.4,0.2,0.5c0.1,0.1,0.3,0.2,0.6,0.2v0.5h-4v-0.5
		c0.3-0.1,0.4-0.2,0.5-0.3c0.1-0.1,0.2-0.3,0.2-0.5c0-0.2,0.1-0.5,0.1-1.1v-3.3c0-0.4,0-0.7,0-0.9c0-0.2,0-0.3-0.1-0.5
		c-0.1-0.1-0.1-0.2-0.2-0.3c-0.1-0.1-0.3-0.1-0.5-0.2v-0.5l2.2-0.1h1L407.8,423z"/>
	<path class="st1" d="M416.5,430.2c-0.3,0.8-0.7,1.4-1,1.8s-0.6,0.8-1,1c-0.4,0.2-0.8,0.3-1.3,0.3c-0.4,0-0.8-0.1-1.1-0.2v-1.8h0.9
		c0.1,0.3,0.2,0.4,0.3,0.5c0.1,0.1,0.3,0.1,0.4,0.1c0.2,0,0.4-0.1,0.6-0.2c0.2-0.1,0.3-0.3,0.6-0.6c0.2-0.3,0.5-0.8,0.8-1.4h-0.5
		l-2.1-6.1c-0.2-0.4-0.3-0.7-0.4-0.9c-0.1-0.2-0.2-0.3-0.3-0.4c-0.1-0.1-0.2-0.1-0.4-0.2v-0.5h4v0.5c-0.3,0-0.4,0.1-0.6,0.2
		s-0.2,0.2-0.2,0.4c0,0.3,0.1,0.6,0.2,1l1.2,3.5l1.3-3.1c0.1-0.3,0.2-0.5,0.2-0.7s0.1-0.4,0.1-0.6c0-0.2-0.1-0.4-0.2-0.6
		s-0.3-0.2-0.5-0.3v-0.5h3.1v0.5c-0.2,0-0.3,0.1-0.4,0.2c-0.1,0.1-0.2,0.2-0.3,0.3c-0.1,0.1-0.2,0.3-0.3,0.5s-0.3,0.6-0.5,1
		L416.5,430.2z"/>
</g>
<line class="st2" x1="51" y1="413.5" x2="428" y2="413.5"/>
<g>
	<path class="st3" d="M438.1,423.5c0,0.4,0,0.7,0,0.9c0,0.2,0.1,0.3,0.2,0.4s0.2,0.2,0.3,0.3c0.1,0.1,0.4,0.1,0.6,0.2v0.6H434v-0.6
		c0.2-0.1,0.4-0.1,0.6-0.2c0.1-0.1,0.2-0.2,0.3-0.3c0.1-0.1,0.1-0.3,0.1-0.5s0-0.5,0-0.8V415c0-0.3,0-0.6,0-0.8
		c0-0.2-0.1-0.4-0.1-0.5c-0.1-0.1-0.2-0.2-0.3-0.3c-0.1-0.1-0.3-0.2-0.6-0.2v-0.6h5.7c1.6,0,2.9,0.3,3.7,0.9
		c0.8,0.6,1.2,1.5,1.2,2.7c0,0.9-0.2,1.6-0.6,2.3c-0.4,0.6-0.9,1.1-1.7,1.5c-0.7,0.3-1.6,0.5-2.7,0.5c-0.6,0-1.1,0-1.6,0V423.5z
		 M438.1,419.2h0.8c0.7,0,1.2-0.1,1.6-0.3s0.7-0.5,0.9-0.9c0.2-0.4,0.3-0.9,0.3-1.6c0-0.7-0.1-1.2-0.3-1.6s-0.5-0.7-0.8-0.9
		c-0.4-0.2-0.8-0.3-1.4-0.3c-0.5,0-0.8,0-1.1,0V419.2z"/>
	<path class="st3" d="M446.3,423v2.9h-2.6V423H446.3z"/>
	<path class="st3" d="M449.4,422.6c0.2,0.8,0.4,1.4,0.8,1.7s0.9,0.6,1.7,0.6c0.4,0,0.7-0.1,1-0.2c0.3-0.1,0.6-0.3,0.7-0.6
		c0.2-0.3,0.3-0.7,0.3-1.1c0-0.4-0.1-0.8-0.2-1c-0.1-0.3-0.4-0.6-0.7-0.8c-0.3-0.3-0.8-0.5-1.4-0.8c-0.5-0.3-1-0.5-1.4-0.8
		s-0.8-0.6-1-0.9c-0.3-0.3-0.5-0.7-0.7-1.1s-0.2-0.8-0.2-1.3c0-0.8,0.2-1.5,0.6-2c0.4-0.6,1-1,1.7-1.3c0.8-0.3,1.6-0.4,2.6-0.4
		c0.6,0,1.1,0,1.7,0.1c0.5,0.1,1.1,0.2,1.8,0.3v2.8h-1.3c-0.1-0.5-0.3-0.9-0.5-1.2s-0.4-0.5-0.7-0.7c-0.3-0.1-0.6-0.2-1.1-0.2
		c-0.4,0-0.7,0.1-1,0.2c-0.3,0.1-0.5,0.3-0.7,0.6c-0.2,0.3-0.3,0.6-0.3,0.9c0,0.4,0.1,0.7,0.2,1c0.1,0.3,0.4,0.5,0.7,0.8
		s0.8,0.6,1.5,0.9c0.8,0.4,1.4,0.8,1.9,1.2s0.8,0.8,1,1.3c0.2,0.5,0.3,1,0.3,1.6c0,0.8-0.2,1.5-0.6,2.1c-0.4,0.6-0.9,1-1.6,1.4
		c-0.7,0.3-1.5,0.5-2.5,0.5c-0.7,0-1.4,0-2.1-0.1c-0.7-0.1-1.4-0.2-2-0.3v-3H449.4z"/>
	<path class="st3" d="M461.2,423v2.9h-2.6V423H461.2z"/>
	<path class="st3" d="M472.8,412.9v2.8h-1.3c-0.2-0.7-0.4-1.3-0.7-1.6c-0.3-0.3-0.8-0.5-1.3-0.5c-1,0-1.8,0.5-2.3,1.5
		s-0.8,2.5-0.8,4.4c0,1.8,0.2,3.2,0.7,4.1s1.2,1.4,2.1,1.4c0.5,0,0.9-0.1,1.2-0.2c0.3-0.2,0.5-0.4,0.7-0.7c0.2-0.3,0.3-0.8,0.5-1.3
		h1.3v3c-0.7,0.2-1.4,0.3-2,0.4s-1.2,0.1-1.8,0.1c-1.4,0-2.5-0.2-3.3-0.7s-1.5-1.2-1.9-2.2s-0.6-2.2-0.6-3.7c0-1.4,0.2-2.6,0.7-3.7
		s1.2-1.9,2.1-2.4s2-0.8,3.3-0.8c0.7,0,1.3,0,1.8,0.1C471.7,412.6,472.2,412.7,472.8,412.9z"/>
</g>
</svg>
